#!OML:ASF X:\für Bonn\!DataBase\2005_08_10_Bjorn_Final\c3d\bjorn.ASF
:FULLY-SPECIFIED
:DEGREES
78
root 0.173966 19.6121 3.96903 -190.468 -36.8454 -168.04
lowerback 21.7627 -2.6372 -4.72879
upperback 12.9131 -6.57 -5.33324
thorax 1.83997 -4.26331 -1.78786
lowerneck -14.9326 -7.60951 -4.17494
upperneck 14.1728 -14.2928 19.5539
head 8.76898 -5.79614 5.36286
rclavicle -2.54444e-014 -6.99722e-014
rhumerus -44.1982 -8.75746 -89.2549
rradius 29.276
rwrist 16.4126
rhand -11.5117 12.4708
rfingers 7.12502
rthumb 14.5275 -17.0005
lclavicle -2.54444e-014 -6.99722e-014
lhumerus 35.2601 -20.6866 82.3096
lradius 96.6672
lwrist -14.5643
lhand -38.4539 -20.9845
lfingers 7.12502
lthumb -11.477 8.68133
rfemur -70.6983 1.60935 15.992
rtibia 114.612
rfoot 0.451137 10.3688
rtoes -22.1312
lfemur -8.83012 -6.02869 -8.90648
ltibia 21.7469
lfoot -0.496087 -18.776
ltoes 5.41816
79
root 0.210158 19.6123 3.9867 -191.36 -37.4837 -167.459
lowerback 22.873 -2.65706 -4.87164
upperback 13.3875 -6.82026 -5.26273
thorax 1.85269 -4.45992 -1.53482
lowerneck -15.1537 -7.72022 -4.41806
upperneck 13.7686 -14.448 20.0926
head 8.76708 -5.86201 5.55026
rclavicle -1.145e-013 1.27222e-014
rhumerus -44.3166 -8.03714 -89.3943
rradius 29.6358
rwrist 16.0154
rhand -11.3825 12.6113
rfingers 7.12502
rthumb 14.652 -16.8511
lclavicle -1.145e-013 1.27222e-014
lhumerus 37.5756 -21.508 82.565
lradius 96.9693
lwrist -14.3306
lhand -38.79 -20.7634
lfingers 7.12502
lthumb -11.8012 8.88414
rfemur -72.3959 0.832534 15.8606
rtibia 116.141
rfoot 1.17012 11.1463
rtoes -21.5589
lfemur -8.45129 -6.25691 -8.50325
ltibia 21.5319
lfoot -0.087018 -19.1916
ltoes 5.6565
80
root 0.246077 19.6115 4.00398 -192.269 -38.1379 -166.872
lowerback 24.0034 -2.67365 -5.01856
upperback 13.8602 -7.07585 -5.18106
thorax 1.86951 -4.66273 -1.26151
lowerneck -15.3173 -7.82156 -4.64544
upperneck 13.3142 -14.5667 20.59
head 8.72916 -5.91962 5.72745
rclavicle 1.08139e-013 0
rhumerus -44.423 -7.47567 -89.3922
rradius 29.9405
rwrist 15.8133
rhand -11.1684 12.8185
rfingers 7.12502
rthumb 14.8583 -16.6288
lclavicle 1.08139e-013 0
lhumerus 39.9129 -22.3223 82.7167
lradius 97.174
lwrist -13.9533
lhand -39.0846 -20.8107
lfingers 7.12502
lthumb -12.0853 8.82027
rfemur -74.061 -0.0953645 15.7931
rtibia 117.619
rfoot 1.67756 11.9523
rtoes -22.0456
lfemur -8.10293 -6.50217 -8.11676
ltibia 21.3717
lfoot 0.234558 -19.6272
ltoes 5.643
81
root 0.281839 19.6108 4.02067 -193.18 -38.7615 -166.247
lowerback 25.1016 -2.67804 -5.1052
upperback 14.322 -7.3047 -5.09751
thorax 1.8961 -4.84998 -1.02348
lowerneck -15.4527 -7.92505 -4.93716
upperneck 12.8725 -14.6987 21.1649
head 8.70671 -5.98534 5.94119
rclavicle 1.00187e-013 -7.31528e-014
rhumerus -44.5178 -7.07338 -89.3116
rradius 30.163
rwrist 15.8069
rhand -10.9641 13.0453
rfingers 7.12502
rthumb 15.055 -16.3873
lclavicle 1.00187e-013 -7.31528e-014
lhumerus 42.2084 -23.1449 82.7779
lradius 97.2889
lwrist -13.441
lhand -39.3642 -21.1999
lfingers 7.12502
lthumb -12.3549 8.41507
rfemur -75.7454 -1.0785 15.8131
rtibia 119.028
rfoot 1.93589 12.7645
rtoes -23.2532
lfemur -7.79823 -6.71097 -7.70545
ltibia 21.2324
lfoot 0.56584 -20.08
ltoes 5.56956
82
root 0.316186 19.6108 4.03597 -194.033 -39.3588 -165.641
lowerback 26.0828 -2.64667 -5.22071
upperback 14.8286 -7.4948 -4.97976
thorax 2.04968 -5.02959 -0.756251
lowerneck -15.6067 -8.05774 -5.26659
upperneck 12.3319 -14.8385 21.7584
head 8.66309 -6.06058 6.16414
rclavicle -6.67916e-014 -4.13472e-014
rhumerus -44.4812 -6.71447 -89.1577
rradius 30.3106
rwrist 15.9103
rhand -10.7534 13.2516
rfingers 7.12502
rthumb 15.258 -16.1657
lclavicle -6.67916e-014 -4.13472e-014
lhumerus 44.5735 -23.9297 82.7344
lradius 97.3307
lwrist -12.9206
lhand -39.6155 -21.7536
lfingers 7.12502
lthumb -12.5971 7.8466
rfemur -77.4531 -2.09225 15.8403
rtibia 120.351
rfoot 1.97488 13.5964
rtoes -24.6834
lfemur -7.5127 -6.94389 -7.31577
ltibia 21.0506
lfoot 0.926266 -20.4524
ltoes 5.61043
83
root 0.350359 19.6133 4.05143 -194.885 -39.9435 -165.024
lowerback 27.0341 -2.60313 -5.29641
upperback 15.3552 -7.66878 -4.85215
thorax 2.24935 -5.20544 -0.50821
lowerneck -15.8004 -8.18912 -5.54095
upperneck 11.793 -14.9737 22.3003
head 8.61994 -6.13288 6.35926
rclavicle -5.24792e-014 7.63333e-014
rhumerus -44.3804 -6.50779 -88.9253
rradius 30.4188
rwrist 16.1399
rhand -10.5797 13.3948
rfingers 7.12502
rthumb 15.4253 -16.0096
lclavicle -5.24792e-014 7.63333e-014
lhumerus 46.9218 -24.6973 82.5898
lradius 97.3507
lwrist -12.3473
lhand -39.7814 -22.4279
lfingers 7.12502
lthumb -12.7571 7.16236
rfemur -79.109 -3.11481 15.8818
rtibia 121.542
rfoot 1.88215 14.3081
rtoes -26.03
lfemur -7.22933 -7.12813 -6.92711
ltibia 20.819
lfoot 1.27115 -20.8684
ltoes 5.3382
84
root 0.384497 19.6218 4.06686 -195.699 -40.5213 -164.396
lowerback 28.0045 -2.58823 -5.3137
upperback 15.7857 -7.85332 -4.7471
thorax 2.33144 -5.37063 -0.298911
lowerneck -15.7886 -8.29524 -5.79272
upperneck 11.2562 -15.0744 22.8185
head 8.53168 -6.2053 6.55441
rclavicle 1.74931e-014 1.04958e-013
rhumerus -44.4409 -6.29375 -88.7072
rradius 30.5349
rwrist 16.3845
rhand -10.4432 13.4219
rfingers 7.12502
rthumb 15.5569 -15.9724
lclavicle 1.74931e-014 1.04958e-013
lhumerus 48.9892 -25.4662 82.4455
lradius 97.3612
lwrist -11.8742
lhand -39.9453 -23.0671
lfingers 7.12502
lthumb -12.915 6.51322
rfemur -80.7407 -4.03809 15.9076
rtibia 122.59
rfoot 1.73604 14.8297
rtoes -26.7628
lfemur -6.98542 -7.26283 -6.53659
ltibia 20.5596
lfoot 1.6207 -21.3005
ltoes 5.06685
85
root 0.417048 19.6283 4.08145 -196.48 -41.0389 -163.771
lowerback 28.9448 -2.57909 -5.23398
upperback 16.1452 -8.00958 -4.71183
thorax 2.33023 -5.50279 -0.216141
lowerneck -15.5223 -8.36732 -5.95646
upperneck 10.6614 -15.1606 23.3956
head 8.37671 -6.29235 6.76408
rclavicle 2.8625e-014 1.33583e-013
rhumerus -44.6272 -6.24722 -88.4931
rradius 30.5597
rwrist 16.7496
rhand -10.3775 13.4422
rfingers 7.12502
rthumb 15.6201 -15.9472
lclavicle 2.8625e-014 1.33583e-013
lhumerus 50.8588 -26.296 82.2651
lradius 97.2933
lwrist -11.4124
lhand -40.052 -23.5685
lfingers 7.12502
lthumb -13.0179 6.00529
rfemur -82.2975 -4.90742 15.9162
rtibia 123.516
rfoot 1.70064 15.1476
rtoes -26.3469
lfemur -6.76725 -7.39059 -6.14327
ltibia 20.3055
lfoot 2.03059 -21.6771
ltoes 4.95167
